<svg width="84" height="29" viewBox="0 0 84 29" fill="none" xmlns="http://www.w3.org/2000/svg">
<path d="M7.12736 22.4135C5.68736 22.4135 4.42736 22.1035 3.34736 21.4835C2.28736 20.8435 1.46736 19.9435 0.887363 18.7835C0.327363 17.6035 0.0473633 16.2135 0.0473633 14.6135C0.0473633 13.0135 0.327363 11.6335 0.887363 10.4735C1.46736 9.2935 2.27736 8.3935 3.31736 7.7735C4.37736 7.1335 5.61736 6.8135 7.03736 6.8135C7.89736 6.8135 8.64736 6.9435 9.28736 7.2035C9.92736 7.4435 10.4574 7.7935 10.8774 8.2535V0.333496H15.8274V22.1735H10.8774V20.8835C10.4774 21.3835 9.94736 21.7635 9.28736 22.0235C8.62736 22.2835 7.90736 22.4135 7.12736 22.4135ZM7.99736 18.2135C8.61736 18.2135 9.16736 18.0635 9.64736 17.7635C10.1274 17.4635 10.4974 17.0435 10.7574 16.5035C11.0174 15.9635 11.1474 15.3335 11.1474 14.6135C11.1474 13.5335 10.8574 12.6635 10.2774 12.0035C9.69736 11.3435 8.93736 11.0135 7.99736 11.0135C7.37736 11.0135 6.82736 11.1635 6.34736 11.4635C5.88736 11.7635 5.52736 12.1835 5.26736 12.7235C5.00736 13.2635 4.87736 13.8935 4.87736 14.6135C4.87736 15.6935 5.15736 16.5635 5.71736 17.2235C6.29736 17.8835 7.05736 18.2135 7.99736 18.2135Z" fill="white"/>
<path d="M24.3956 22.4135C23.1556 22.4135 22.0456 22.1935 21.0656 21.7535C20.1056 21.2935 19.3456 20.6535 18.7856 19.8335C18.2256 19.0135 17.9256 18.0635 17.8856 16.9835H22.0556C22.1356 17.5235 22.3856 17.9635 22.8056 18.3035C23.2456 18.6235 23.7756 18.7835 24.3956 18.7835C24.9156 18.7835 25.3356 18.6835 25.6556 18.4835C25.9956 18.2835 26.1656 18.0235 26.1656 17.7035C26.1656 17.4035 26.0556 17.1735 25.8356 17.0135C25.6156 16.8335 25.3456 16.7035 25.0256 16.6235C24.7256 16.5235 24.2456 16.4135 23.5856 16.2935C22.5256 16.1135 21.6456 15.9035 20.9456 15.6635C20.2456 15.4035 19.6356 14.9535 19.1156 14.3135C18.5956 13.6535 18.3356 12.7235 18.3356 11.5235C18.3356 10.6235 18.5756 9.8235 19.0556 9.1235C19.5356 8.4035 20.1856 7.8435 21.0056 7.4435C21.8456 7.0235 22.7656 6.8135 23.7656 6.8135C25.0056 6.8135 26.1056 7.0235 27.0656 7.4435C28.0256 7.8635 28.7756 8.4535 29.3156 9.2135C29.8756 9.9735 30.1756 10.8635 30.2156 11.8835H26.0156C25.9356 11.3835 25.7056 10.9735 25.3256 10.6535C24.9456 10.3135 24.4956 10.1435 23.9756 10.1435C23.4956 10.1435 23.1156 10.2435 22.8356 10.4435C22.5556 10.6435 22.4156 10.9335 22.4156 11.3135C22.4156 11.6335 22.5256 11.8835 22.7456 12.0635C22.9656 12.2235 23.2456 12.3435 23.5856 12.4235C23.9456 12.5035 24.4356 12.5835 25.0556 12.6635C26.1556 12.8035 27.0556 12.9935 27.7556 13.2335C28.4756 13.4535 29.0956 13.9035 29.6156 14.5835C30.1556 15.2435 30.4256 16.2135 30.4256 17.4935C30.4256 18.4735 30.1756 19.3335 29.6756 20.0735C29.1756 20.8135 28.4656 21.3935 27.5456 21.8135C26.6456 22.2135 25.5956 22.4135 24.3956 22.4135Z" fill="white"/>
<path d="M34.2003 24.5135H41.1603C41.6603 24.5135 42.0703 24.3235 42.3903 23.9435C42.7103 23.5835 42.8703 23.1235 42.8703 22.5635V20.8835C42.4703 21.3635 41.9303 21.7435 41.2503 22.0235C40.5903 22.2835 39.8703 22.4135 39.0903 22.4135C37.6503 22.4135 36.3903 22.1035 35.3103 21.4835C34.2503 20.8435 33.4303 19.9435 32.8503 18.7835C32.2903 17.6035 32.0103 16.2135 32.0103 14.6135C32.0103 13.0135 32.2903 11.6335 32.8503 10.4735C33.4303 9.2935 34.2403 8.3935 35.2803 7.7735C36.3403 7.1335 37.5803 6.8135 39.0003 6.8135C39.8603 6.8135 40.6103 6.9435 41.2503 7.2035C41.8903 7.4435 42.4203 7.7935 42.8403 8.2535V7.0535H47.7903V23.1635C47.7903 24.2035 47.5503 25.1035 47.0703 25.8635C46.6103 26.6435 45.9403 27.2435 45.0603 27.6635C44.2003 28.0835 43.2003 28.2935 42.0603 28.2935H34.2003V24.5135ZM39.9603 18.2135C40.5803 18.2135 41.1303 18.0635 41.6103 17.7635C42.0903 17.4635 42.4603 17.0435 42.7203 16.5035C42.9803 15.9635 43.1103 15.3335 43.1103 14.6135C43.1103 13.5135 42.8203 12.6435 42.2403 12.0035C41.6803 11.3435 40.9203 11.0135 39.9603 11.0135C39.3403 11.0135 38.7903 11.1635 38.3103 11.4635C37.8503 11.7635 37.4903 12.1835 37.2303 12.7235C36.9703 13.2635 36.8403 13.8935 36.8403 14.6135C36.8403 15.7135 37.1203 16.5935 37.6803 17.2535C38.2603 17.8935 39.0203 18.2135 39.9603 18.2135Z" fill="white"/>
<path d="M50.6585 7.0535H55.6085V8.7935C56.0485 8.1935 56.6585 7.7135 57.4385 7.3535C58.2185 6.9935 59.0885 6.8135 60.0485 6.8135C61.1485 6.8135 62.1185 7.0635 62.9585 7.5635C63.8185 8.0635 64.4785 8.7635 64.9385 9.6635C65.4185 10.5435 65.6585 11.5435 65.6585 12.6635V22.1735H60.7085V13.8335C60.7085 13.0735 60.4685 12.4435 59.9885 11.9435C59.5085 11.4435 58.8985 11.1935 58.1585 11.1935C57.6585 11.1935 57.2185 11.3135 56.8385 11.5535C56.4585 11.7735 56.1585 12.0835 55.9385 12.4835C55.7185 12.8835 55.6085 13.3335 55.6085 13.8335V22.1735H50.6585V7.0535Z" fill="white"/>
<path d="M75.9431 11.1335C75.1231 11.1335 74.4831 11.4335 74.0231 12.0335C73.5631 12.6335 73.3331 13.4635 73.3331 14.5235V22.1735H68.3831V7.0535H73.3331V9.3335C73.7531 8.4735 74.2431 7.8835 74.8031 7.5635C75.3831 7.2235 76.1131 7.0535 76.9931 7.0535H78.5831V11.1335H75.9431Z" fill="white"/>
<path d="M83.4455 17.1935V22.1735H78.1655V17.1935H83.4455Z" fill="white"/>
</svg>
