<svg width="64" height="64" viewBox="0 0 64 64" fill="none" xmlns="http://www.w3.org/2000/svg">
<path d="M32 60.6666C19.8667 60.6666 10 50.7999 10 38.6666V25.3333C10 13.1999 19.8667 3.33325 32 3.33325C44.1333 3.33325 54 13.1999 54 25.3333V38.6666C54 50.7999 44.1333 60.6666 32 60.6666ZM32 7.33325C22.08 7.33325 14 15.4133 14 25.3333V38.6666C14 48.5866 22.08 56.6666 32 56.6666C41.92 56.6666 50 48.5866 50 38.6666V25.3333C50 15.4133 41.92 7.33325 32 7.33325Z" fill="#101010"/>
<path d="M32 31.3333C28.6933 31.3333 26 28.64 26 25.3333V20C26 16.6933 28.6933 14 32 14C35.3067 14 38 16.6933 38 20V25.3333C38 28.64 35.3067 31.3333 32 31.3333ZM32 18C30.9067 18 30 18.9067 30 20V25.3333C30 26.4267 30.9067 27.3333 32 27.3333C33.0933 27.3333 34 26.4267 34 25.3333V20C34 18.9067 33.0933 18 32 18Z" fill="#101010"/>
<path d="M32 17.9999C30.9067 17.9999 30 17.0933 30 15.9999V5.33325C30 4.23992 30.9067 3.33325 32 3.33325C33.0933 3.33325 34 4.23992 34 5.33325V15.9999C34 17.0933 33.0933 17.9999 32 17.9999Z" fill="#101010"/>
</svg>
