<svg width="1608" height="967" viewBox="0 0 1608 967" fill="none" xmlns="http://www.w3.org/2000/svg">
<path fill-rule="evenodd" clip-rule="evenodd" d="M1141.82 8.78664C976.529 -39.8853 803.073 54.6572 754.401 219.953L683.221 461.691C678.226 478.653 659.351 488.355 642.478 483.068C641.094 482.635 639.704 482.212 638.307 481.801C507.151 443.181 369.521 518.197 330.902 649.354C292.282 780.51 367.298 918.14 498.454 956.759C589.805 983.658 684.296 955.43 746.286 891.503C782.725 853.926 844.175 834.329 894.387 849.114L1136.13 920.295C1301.42 968.967 1474.88 874.424 1523.55 709.129L1594.73 467.39C1643.4 302.094 1548.86 128.639 1383.56 79.9673L1141.82 8.78664Z" fill="#FEBC0A" fill-opacity="0.7"/>
<path fill-rule="evenodd" clip-rule="evenodd" d="M446.386 397.506C442.053 392.435 441.674 384.868 445.976 379.77C518.62 293.675 539.349 191.547 489.739 133.493C430.896 64.6357 295.381 83.8585 187.057 176.428C78.7324 268.998 38.6199 399.86 97.4626 468.717C101.796 473.788 102.174 481.355 97.8728 486.453C25.2287 572.548 4.49959 674.676 54.1101 732.73C112.953 801.587 248.468 782.364 356.792 689.795C465.116 597.225 505.229 466.363 446.386 397.506Z" fill="#FEBC0A" fill-opacity="0.7"/>
</svg>
